<svg width="1440" height="899" viewBox="0 0 1440 899" fill="none" xmlns="http://www.w3.org/2000/svg">
<rect x="-239" y="565" width="79.9999" height="1840" transform="rotate(-90 -239 565)" fill="#C2EDE2" fill-opacity="0.5"/>
<rect x="-239" y="865" width="79.9999" height="1840" transform="rotate(-90 -239 865)" fill="#C2EDE2" fill-opacity="0.5"/>
<rect x="-239" y="265" width="79.9999" height="1840" transform="rotate(-90 -239 265)" fill="#C2EDE2" fill-opacity="0.5"/>
<rect x="-239" y="415" width="79.9999" height="1840" transform="rotate(-90 -239 415)" fill="#C2EDE2" fill-opacity="0.5"/>
<rect x="-239" y="715" width="79.9999" height="1840" transform="rotate(-90 -239 715)" fill="#C2EDE2" fill-opacity="0.5"/>
<rect x="-239" y="115" width="79.9999" height="1840" transform="rotate(-90 -239 115)" fill="#C2EDE2" fill-opacity="0.5"/>
<rect x="412" width="80" height="899" fill="url(#paint0_linear_101_489)" fill-opacity="0.5"/>
<rect x="1012" width="80" height="899" fill="url(#paint1_linear_101_489)" fill-opacity="0.5"/>
<rect x="112" width="80" height="899" fill="url(#paint2_linear_101_489)" fill-opacity="0.5"/>
<rect x="712" width="80" height="899" fill="url(#paint3_linear_101_489)" fill-opacity="0.5"/>
<rect x="1312" width="80" height="899" fill="url(#paint4_linear_101_489)" fill-opacity="0.5"/>
<rect x="-38" width="80" height="899" fill="url(#paint5_linear_101_489)" fill-opacity="0.5"/>
<rect x="562" width="80" height="899" fill="url(#paint6_linear_101_489)" fill-opacity="0.5"/>
<rect x="1162" width="80" height="899" fill="url(#paint7_linear_101_489)" fill-opacity="0.5"/>
<rect x="262" width="80" height="899" fill="url(#paint8_linear_101_489)" fill-opacity="0.5"/>
<rect x="862" width="80" height="899" fill="url(#paint9_linear_101_489)" fill-opacity="0.5"/>
<defs>
<linearGradient id="paint0_linear_101_489" x1="412" y1="449.5" x2="492" y2="449.5" gradientUnits="userSpaceOnUse">
<stop stop-color="#94E3CE"/>
<stop offset="1" stop-color="#C2EDE2"/>
</linearGradient>
<linearGradient id="paint1_linear_101_489" x1="1012" y1="449.5" x2="1092" y2="449.5" gradientUnits="userSpaceOnUse">
<stop stop-color="#94E3CE"/>
<stop offset="1" stop-color="#C2EDE2"/>
</linearGradient>
<linearGradient id="paint2_linear_101_489" x1="112" y1="449.5" x2="192" y2="449.5" gradientUnits="userSpaceOnUse">
<stop stop-color="#94E3CE"/>
<stop offset="1" stop-color="#C2EDE2"/>
</linearGradient>
<linearGradient id="paint3_linear_101_489" x1="712" y1="449.5" x2="792" y2="449.5" gradientUnits="userSpaceOnUse">
<stop stop-color="#94E3CE"/>
<stop offset="1" stop-color="#C2EDE2"/>
</linearGradient>
<linearGradient id="paint4_linear_101_489" x1="1312" y1="449.5" x2="1392" y2="449.5" gradientUnits="userSpaceOnUse">
<stop stop-color="#94E3CE"/>
<stop offset="1" stop-color="#C2EDE2"/>
</linearGradient>
<linearGradient id="paint5_linear_101_489" x1="-38" y1="449.5" x2="42" y2="449.5" gradientUnits="userSpaceOnUse">
<stop stop-color="#94E3CE"/>
<stop offset="1" stop-color="#C2EDE2"/>
</linearGradient>
<linearGradient id="paint6_linear_101_489" x1="562" y1="449.5" x2="642" y2="449.5" gradientUnits="userSpaceOnUse">
<stop stop-color="#94E3CE"/>
<stop offset="1" stop-color="#C2EDE2"/>
</linearGradient>
<linearGradient id="paint7_linear_101_489" x1="1162" y1="449.5" x2="1242" y2="449.5" gradientUnits="userSpaceOnUse">
<stop stop-color="#94E3CE"/>
<stop offset="1" stop-color="#C2EDE2"/>
</linearGradient>
<linearGradient id="paint8_linear_101_489" x1="262" y1="449.5" x2="342" y2="449.5" gradientUnits="userSpaceOnUse">
<stop stop-color="#94E3CE"/>
<stop offset="1" stop-color="#C2EDE2"/>
</linearGradient>
<linearGradient id="paint9_linear_101_489" x1="862" y1="449.5" x2="942" y2="449.5" gradientUnits="userSpaceOnUse">
<stop stop-color="#94E3CE"/>
<stop offset="1" stop-color="#C2EDE2"/>
</linearGradient>
</defs>
</svg>
